<?xml version="1.0" standalone="no"?>
<!DOCTYPE svg PUBLIC "-//W3C//DTD SVG 20010904//EN"
 "http://www.w3.org/TR/2001/REC-SVG-20010904/DTD/svg10.dtd">
<svg version="1.0" xmlns="http://www.w3.org/2000/svg"
 width="764.000000pt" height="764.000000pt" viewBox="0 0 764.000000 764.000000"
 preserveAspectRatio="xMidYMid meet">
<metadata>
Created by potrace 1.14, written by Peter Selinger 2001-2017
</metadata>
<g transform="translate(0.000000,764.000000) scale(0.100000,-0.100000)"
fill="#000000" stroke="none">
<path d="M2915 6862 c35 -25 36 -39 6 -71 -16 -17 -36 -45 -43 -61 -7 -17 -17
-30 -21 -30 -5 0 -6 -4 -2 -9 3 -6 -3 -14 -12 -20 -10 -6 -13 -11 -8 -11 6 0
4 -4 -4 -9 -8 -5 -16 -17 -18 -25 -5 -26 -9 -39 -22 -70 -6 -16 -13 -36 -14
-45 -1 -9 -6 -22 -10 -28 -5 -7 -5 -17 -2 -23 3 -5 1 -10 -5 -10 -7 0 -10 -6
-7 -14 3 -8 2 -16 -3 -18 -5 -2 -11 -14 -14 -28 -3 -14 -7 -35 -10 -47 -4 -13
-8 -32 -11 -44 -2 -11 -6 -28 -9 -37 -3 -9 -8 -35 -11 -57 -3 -23 -8 -52 -10
-65 -3 -14 -10 -56 -15 -95 -6 -40 -18 -78 -29 -90 -15 -17 -22 -70 -44 -315
-64 -705 -71 -1194 -40 -3077 l17 -1082 22 -10 c20 -9 22 -20 29 -131 8 -130
9 -135 85 -246 22 -33 46 -56 67 -63 18 -7 46 -26 63 -42 25 -25 35 -29 59
-24 16 3 47 1 68 -5 61 -18 248 -49 383 -65 176 -21 914 -21 1095 0 72 8 153
15 182 15 33 0 55 5 60 14 4 7 26 23 48 34 58 29 138 117 174 189 29 58 31 69
31 173 l0 110 28 0 c41 0 71 37 82 101 9 49 44 600 70 1109 6 113 20 320 31
460 39 490 51 829 56 1587 l5 742 -27 173 c-23 142 -34 185 -61 239 -18 37
-44 75 -57 85 -19 15 -31 50 -62 174 -24 99 -58 203 -95 290 -31 74 -65 157
-75 183 -21 57 -81 111 -173 155 -34 17 -62 28 -62 26 0 -2 -9 5 -20 16 -16
16 -33 21 -73 20 -29 -1 -110 2 -182 6 -157 8 -330 16 -445 19 -47 1 -101 5
-120 9 -19 3 -107 8 -195 11 -88 3 -214 9 -280 12 -66 4 -168 7 -228 8 -59 0
-107 3 -107 8 0 4 -10 7 -22 7 -13 0 -18 -4 -13 -8z"/>
</g>
</svg>
